Coordinates
version=1
nRows=14
nColumns=40
inDegrees=yes

Units are S.I. units (second, meters, Newtons, ...)
If the header above contains a line with 'inDegrees', this indicates whether rotational values are in degrees (yes) or radians (no).

endheader
time	pelvis_tilt	pelvis_list	pelvis_rotation	pelvis_tx	pelvis_ty	pelvis_tz	hip_flexion_r	hip_adduction_r	hip_rotation_r	knee_angle_r	knee_angle_r_beta	ankle_angle_r	subtalar_angle_r	mtp_angle_r	hip_flexion_l	hip_adduction_l	hip_rotation_l	knee_angle_l	knee_angle_l_beta	ankle_angle_l	subtalar_angle_l	mtp_angle_l	lumbar_extension	lumbar_bending	lumbar_rotation	arm_flex_r	arm_add_r	arm_rot_r	elbow_flex_r	pro_sup_r	wrist_flex_r	wrist_dev_r	arm_flex_l	arm_add_l	arm_rot_l	elbow_flex_l	pro_sup_l	wrist_flex_l	wrist_dev_l
      0.86000000	     -0.38513999	      8.98691740	    -86.59522627	      0.26926954	      0.87046518	      0.85508023	     24.44210461	    -10.69381594	    -11.83710747	     58.62781184	      1.02324835	     -7.59218365	      0.00000000	      0.00000000	     17.46956307	      2.30166121	     -1.14598085	     18.56555432	      0.32403005	      2.05232159	      0.00000000	      0.00000000	      3.08362542	      1.51878716	     -4.24023046	     -7.08310255	     -5.88113368	      4.50208416	     31.19386155	     89.17794284	    -23.00990195	      8.18007062	     -0.63992878	    -10.52553327	      9.29446925	     40.80067018	     89.30867489	    -22.76431773	      3.14092257
      0.87000000	     -1.10570351	      8.64528739	    -86.02867533	      0.27079182	      0.87197186	      0.86585111	     25.02973609	    -10.20006184	    -13.02495993	     56.80157163	      0.99137445	     -6.45531320	      0.00000000	      0.00000000	     16.00882972	      1.70328834	     -0.58344445	     17.83718548	      0.31131762	      2.47446724	      0.00000000	      0.00000000	      2.61598454	      2.46493187	     -5.17893958	     -7.37563233	     -5.87293237	      4.13211252	     30.66641361	     89.18418338	    -22.78438360	      8.72147013	      0.03920905	    -10.51981282	      9.31376756	     41.95551298	     89.29529683	    -22.95940499	      2.75661919
      0.88000000	     -1.35465563	      8.80092433	    -85.91189308	      0.27177295	      0.87242571	      0.87662936	     26.32737617	    -10.04443774	    -13.59290113	     54.99450587	      0.95983520	     -5.68213101	      0.00000000	      0.00000000	     15.01079138	      1.49925032	     -0.61571226	     17.05473463	      0.29766127	      2.74680356	      0.00000000	      0.00000000	      2.72979803	      2.87213859	     -5.64203247	     -7.81353806	     -5.82539733	      3.78141096	     30.11551969	     89.17382378	    -22.78598740	      8.91508748	      0.64442114	    -10.62590681	      9.53562199	     43.15731454	     89.29160314	    -22.92363094	      2.57818097
      0.89000000	     -1.94565016	      8.37130605	    -85.34928548	      0.27325439	      0.87356688	      0.88742658	     26.61515419	     -9.67149605	    -14.92013555	     52.61145635	      0.91824314	     -5.08586141	      0.00000000	      0.00000000	     13.48579703	      0.98402062	     -0.08479153	     16.39330366	      0.28611712	      3.19920774	      0.00000000	      0.00000000	      2.16572837	      3.69058810	     -6.47100333	     -8.21526484	     -5.80512011	      3.08920085	     29.90452840	     89.17457350	    -22.51529899	      9.26946228	      1.39378400	    -10.66714222	      9.62188954	     44.31911002	     89.29038751	    -22.64724036	      2.50444694
      0.90000000	     -2.30552405	      8.14243081	    -84.98067573	      0.27447363	      0.87410831	      0.89825501	     27.14382871	     -9.43992226	    -15.95651939	     50.14744400	      0.87523801	     -4.58276640	      0.00000000	      0.00000000	     12.12107484	      0.66075365	      0.13898320	     15.66849950	      0.27346691	      3.59298158	      0.00000000	      0.00000000	      1.84484269	      4.24783179	     -7.12278552	     -8.65628929	     -5.78048197	      2.39828877	     29.72384592	     89.16738716	    -22.23164839	      9.51484638	      2.08428976	    -10.77385871	      9.77514287	     45.50525017	     89.29028292	    -22.17412657	      2.56778603
      0.91000000	     -2.43715540	      8.33068334	    -84.87487166	      0.27523578	      0.87372822	      0.90907058	     28.20470057	     -9.34780263	    -16.68378978	     47.71188554	      0.83272949	     -4.01433778	      0.00000000	      0.00000000	     11.14359670	      0.54738707	      0.09177973	     14.88264852	      0.25975122	      3.86898218	      0.00000000	      0.00000000	      2.00272397	      4.50911543	     -7.53816163	     -9.11798781	     -5.74556621	      1.97132882	     29.43252891	     89.15480547	    -22.21619959	      9.58457457	      2.66753980	    -10.91597983	      9.97076615	     46.67794531	     89.28680573	    -21.97319465	      2.50813363
      0.92000000	     -2.22564476	      8.56257581	    -84.85541084	      0.27596030	      0.87300584	      0.91952375	     29.31957237	     -9.55487569	    -17.17965897	     45.17786198	      0.78850244	     -3.70049687	      0.00000000	      0.00000000	     10.35037662	      0.79587116	     -0.04561668	     14.44439357	      0.25210223	      4.24406599	      0.00000000	      0.00000000	      2.12227602	      4.39147379	     -7.86390826	     -9.56402088	     -5.71297176	      1.74975294	     29.26939769	     89.12332845	    -22.23911525	      9.60859707	      3.32822402	    -11.09325222	     10.16299621	     47.76120140	     89.29895170	    -21.87348653	      2.39362412
      0.93000000	     -3.04112724	      7.78760557	    -84.10361548	      0.27722620	      0.87368973	      0.93080410	     28.71768533	     -8.85891069	    -19.14064208	     41.81490446	      0.72980776	     -3.38248834	      0.00000000	      0.00000000	      8.36698232	     -0.08545332	      0.47255771	     13.55357620	      0.23655453	      4.77044673	      0.00000000	      0.00000000	      1.27818140	      5.48417912	     -8.80641906	     -9.96907321	     -5.68563223	      0.69329113	     29.35019056	     89.13209487	    -22.12552824	      9.26816555	      4.06894126	    -11.18927237	     10.32206194	     48.86916404	     89.28891349	    -21.03632590	      2.64013351
      0.94000000	     -3.15817005	      7.51270308	    -83.89441461	      0.27786138	      0.87332371	      0.94175048	     28.92167930	     -8.64006367	    -20.18164049	     38.68936192	      0.67525675	     -3.04505497	      0.00000000	      0.00000000	      6.88981114	     -0.25911749	      0.40909125	     12.77329842	      0.22293611	      5.10104728	      0.00000000	      0.00000000	      0.89040126	      5.76734410	     -9.28970296	    -10.32745618	     -5.65652543	      0.24069678	     29.28279213	     89.11998841	    -22.05565492	      9.05095000	      4.71583844	    -11.38242847	     10.41091655	     50.00889692	     89.29273452	    -20.08857586	      2.94495488
      0.95000000	     -2.80431637	      7.87436684	    -83.93168279	      0.27812933	      0.87170429	      0.95236841	     29.99436197	     -8.84258882	    -20.68689822	     35.79289145	      0.62470380	     -2.67104192	      0.00000000	      0.00000000	      6.17043231	      0.11682633	      0.14578287	     12.26455500	      0.21405687	      5.45930556	      0.00000000	      0.00000000	      1.16418146	      5.43831169	     -9.56481290	    -10.73882463	     -5.60946972	      0.10116748	     29.20705323	     89.09647299	    -22.10034372	      9.02535945	      5.27578255	    -11.61635722	     10.60757126	     51.05292347	     89.29934506	    -19.96167842	      2.85155229
      0.96000000	     -2.53588425	      8.21966838	    -83.94297661	      0.27825735	      0.86992664	      0.96311197	     30.93515320	     -8.88610152	    -21.28834373	     32.68763367	      0.57050683	     -2.31644641	      0.00000000	      0.00000000	      5.41354340	      0.39354671	     -0.08665633	     11.70244087	      0.20424612	      5.81106963	      0.00000000	      0.00000000	      1.43508805	      5.20239674	     -9.85015800	    -11.13171552	     -5.54485964	     -0.06368277	     29.13814863	     89.08207721	    -22.15475100	      8.94461101	      5.78567822	    -11.86117773	     10.80384041	     52.08647350	     89.31086468	    -19.83184460	      2.75881043
      0.97000000	     -3.40350870	      7.72615719	    -83.52917643	      0.27844629	      0.86944478	      0.97450747	     30.48606693	     -7.67185436	    -22.85232370	     28.72009833	      0.50126028	     -2.64092898	      0.00000000	      0.00000000	      3.76791790	     -0.67554940	     -0.09510884	     10.90476351	      0.19032403	      6.18380265	      0.00000000	      0.00000000	      0.93301940	      6.30295881	    -10.47144021	    -11.38020246	     -5.60839038	     -0.42315812	     29.04631830	     89.08736678	    -22.34615501	      8.12053239	      6.36953944	    -11.86463709	     10.72277700	     52.91246196	     89.30541277	    -19.18012042	      2.91682851
      0.98000000	     -3.28774980	      7.31716343	    -83.42917985	      0.27831155	      0.86852363	      0.98539904	     30.37252201	     -7.32128407	    -23.50109067	     25.21339478	      0.44005675	     -2.61070090	      0.00000000	      0.00000000	      2.19341129	     -0.69019753	     -0.26442744	     10.27923057	      0.17940642	      6.47577780	      0.00000000	      0.00000000	      0.30704991	      6.29464722	    -10.82846110	    -11.50959670	     -5.51054782	     -0.39380997	     28.82456274	     89.06813719	    -22.94449229	      7.30246884	      6.96907356	    -12.14780652	     10.71672091	     53.98914035	     89.31312669	    -17.97757842	      3.28468241
      0.99000000	     -3.21523687	      7.56666917	    -83.44939834	      0.27785754	      0.86643841	      0.99624732	     31.01989651	     -6.88333774	    -23.77554114	     21.79032105	      0.38031285	     -2.89784934	      0.00000000	      0.00000000	      1.42881218	     -0.68944311	     -0.57982664	      9.87977687	      0.17243464	      6.85320015	      0.00000000	      0.00000000	      0.47220159	      6.24262654	    -11.09424740	    -11.73874173	     -5.47087935	     -0.29698782	     28.69010745	     89.05704843	    -23.26243767	      6.90043991	      7.38683937	    -12.34477255	     10.67501445	     54.91420696	     89.31943813	    -17.41699934	      3.44664793
